<svg id="visual" viewBox="0 0 900 600" width="900" height="600" xmlns="http://www.w3.org/2000/svg" xmlns:xlink="http://www.w3.org/1999/xlink" version="1.1"><path d="M0 467L18.8 464C37.7 461 75.3 455 112.8 460C150.3 465 187.7 481 225.2 482.8C262.7 484.7 300.3 472.3 337.8 469.7C375.3 467 412.7 474 450.2 471.5C487.7 469 525.3 457 562.8 461.8C600.3 466.7 637.7 488.3 675.2 491.7C712.7 495 750.3 480 787.8 476C825.3 472 862.7 479 881.3 482.5L900 486L900 601L881.3 601C862.7 601 825.3 601 787.8 601C750.3 601 712.7 601 675.2 601C637.7 601 600.3 601 562.8 601C525.3 601 487.7 601 450.2 601C412.7 601 375.3 601 337.8 601C300.3 601 262.7 601 225.2 601C187.7 601 150.3 601 112.8 601C75.3 601 37.7 601 18.8 601L0 601Z" fill="#abc5b1"></path><path d="M0 507L18.8 505.7C37.7 504.3 75.3 501.7 112.8 503.8C150.3 506 187.7 513 225.2 514.5C262.7 516 300.3 512 337.8 516.2C375.3 520.3 412.7 532.7 450.2 531.5C487.7 530.3 525.3 515.7 562.8 509.2C600.3 502.7 637.7 504.3 675.2 506.5C712.7 508.7 750.3 511.3 787.8 510.5C825.3 509.7 862.7 505.3 881.3 503.2L900 501L900 601L881.3 601C862.7 601 825.3 601 787.8 601C750.3 601 712.7 601 675.2 601C637.7 601 600.3 601 562.8 601C525.3 601 487.7 601 450.2 601C412.7 601 375.3 601 337.8 601C300.3 601 262.7 601 225.2 601C187.7 601 150.3 601 112.8 601C75.3 601 37.7 601 18.8 601L0 601Z" fill="#88ab8e"></path><path d="M0 531L18.8 531.2C37.7 531.3 75.3 531.7 112.8 534C150.3 536.3 187.7 540.7 225.2 544C262.7 547.3 300.3 549.7 337.8 555.5C375.3 561.3 412.7 570.7 450.2 573.7C487.7 576.7 525.3 573.3 562.8 568C600.3 562.7 637.7 555.3 675.2 556.8C712.7 558.3 750.3 568.7 787.8 572.3C825.3 576 862.7 573 881.3 571.5L900 570L900 601L881.3 601C862.7 601 825.3 601 787.8 601C750.3 601 712.7 601 675.2 601C637.7 601 600.3 601 562.8 601C525.3 601 487.7 601 450.2 601C412.7 601 375.3 601 337.8 601C300.3 601 262.7 601 225.2 601C187.7 601 150.3 601 112.8 601C75.3 601 37.7 601 18.8 601L0 601Z" fill="#637e67"></path></svg>